<?xml version="1.0" standalone="no"?>
<!DOCTYPE svg PUBLIC "-//W3C//DTD SVG 20010904//EN"
 "http://www.w3.org/TR/2001/REC-SVG-20010904/DTD/svg10.dtd">
<svg version="1.0" xmlns="http://www.w3.org/2000/svg"
 width="692.000000pt" height="361.000000pt" viewBox="0 0 692.000000 361.000000"
 preserveAspectRatio="xMidYMid meet">

<g transform="translate(0.000000,361.000000) scale(0.100000,-0.100000)"
fill="#000000" stroke="none">
<path d="M5600 2670 c0 -120 0 -120 24 -120 29 0 36 28 36 151 l0 89 -30 0
-30 0 0 -120z"/>
<path d="M1077 2774 c-4 -4 -10 -29 -13 -56 -6 -43 -11 -51 -44 -69 -78 -44
-108 -157 -61 -232 24 -39 77 -77 107 -77 29 0 75 109 81 193 6 67 6 67 -20
67 -51 0 -65 88 -23 137 21 24 27 26 52 18 20 -7 32 -20 39 -43 5 -17 12 -32
16 -32 9 0 59 59 59 70 0 5 -35 11 -77 15 -43 4 -85 9 -94 11 -8 2 -18 1 -22
-2z"/>
<path d="M4235 2751 c-102 -26 -174 -97 -206 -203 -29 -93 -24 -288 9 -360 50
-111 140 -171 258 -172 134 -1 230 74 270 211 12 41 15 87 12 182 -3 119 -5
130 -36 193 -47 96 -116 143 -224 152 -29 3 -66 2 -83 -3z m138 -85 c41 -17
91 -73 108 -123 9 -24 14 -83 14 -164 0 -120 -1 -128 -30 -184 -37 -72 -90
-105 -169 -105 -130 0 -206 109 -206 295 0 137 44 238 121 277 41 21 117 23
162 4z"/>
<path d="M5980 2754 c-171 -32 -247 -196 -142 -307 33 -35 117 -79 197 -102
124 -35 165 -70 165 -140 0 -78 -54 -118 -160 -118 -101 0 -165 38 -179 105
-6 31 -10 33 -50 36 l-44 3 6 -37 c23 -142 214 -220 389 -158 117 41 161 171
94 274 -27 41 -111 89 -201 115 -123 35 -175 77 -175 141 0 81 56 119 170 112
86 -5 119 -26 140 -91 15 -46 16 -47 58 -47 l44 0 -7 33 c-13 63 -57 120 -115
149 -54 27 -138 41 -190 32z"/>
<path d="M1360 2740 c65 -42 380 -84 380 -51 0 4 -13 19 -28 34 l-28 27 -170
0 c-113 0 -164 -4 -154 -10z"/>
<path d="M3138 2385 l2 -365 41 0 41 0 -4 295 c-2 201 0 291 7 282 6 -8 61
-141 124 -296 l114 -281 32 0 32 0 98 243 c54 133 107 266 119 294 11 29 23
53 26 53 3 0 3 -133 1 -295 l-3 -295 41 0 41 0 0 365 0 366 -57 -3 -57 -3
-117 -295 c-65 -162 -121 -293 -126 -291 -4 2 -60 134 -124 295 l-115 291 -60
3 -59 3 3 -366z"/>
<path d="M4740 2385 l0 -365 40 0 40 0 2 296 3 296 119 -297 119 -296 34 3 34
3 115 285 c63 156 118 288 123 293 4 4 6 -125 3 -288 l-5 -295 47 0 46 0 0
365 0 366 -61 -3 -61 -3 -114 -285 c-62 -157 -117 -292 -122 -300 -6 -10 -44
75 -128 288 l-119 301 -57 1 -58 0 0 -365z"/>
<path d="M1121 2708 c0 -7 4 -22 8 -32 8 -20 8 -20 13 0 3 11 -1 25 -9 32 -10
10 -13 10 -12 0z"/>
<path d="M1298 2674 c-10 -3 -18 -9 -18 -13 0 -6 87 -25 154 -34 22 -2 31 29
11 37 -22 8 -128 15 -147 10z"/>
<path d="M1555 2633 c-9 -24 4 -31 62 -34 65 -3 75 4 33 26 -45 23 -87 27 -95
8z"/>
<path d="M1326 2603 c27 -4 30 -7 26 -28 -6 -33 22 -44 49 -19 12 11 23 18 25
17 18 -12 11 1 -9 17 -18 14 -39 20 -74 18 -33 -1 -39 -2 -17 -5z"/>
<path d="M1555 2559 c-28 -6 -29 -7 -4 -8 20 -1 25 -6 25 -23 -1 -30 38 -37
53 -11 18 35 -17 55 -74 42z"/>
<path d="M1460 2440 c0 -5 10 -10 23 -10 18 0 19 2 7 10 -19 13 -30 13 -30 0z"/>
<path d="M1421 2386 c-20 -11 -21 -14 -6 -19 9 -4 30 -7 45 -7 16 0 32 -4 35
-10 7 -12 25 -13 25 -2 0 34 -62 58 -99 38z"/>
<path d="M1400 2316 c0 -2 7 -7 16 -10 8 -3 12 -2 9 4 -6 10 -25 14 -25 6z"/>
<path d="M1260 2282 c0 -5 14 -28 30 -50 34 -47 60 -55 60 -18 0 16 -12 31
-40 50 -43 28 -50 31 -50 18z"/>
<path d="M2735 2236 c-45 -20 -119 -89 -160 -151 -20 -30 -41 -55 -48 -55 -8
0 -7 -4 2 -9 11 -7 28 1 60 25 25 19 65 48 88 64 47 33 97 100 91 124 -3 12
-7 13 -33 2z"/>
<path d="M1168 2093 c6 -2 18 -2 25 0 6 3 1 5 -13 5 -14 0 -19 -2 -12 -5z"/>
<path d="M2390 1925 c-46 -18 -28 -18 35 0 29 8 39 14 25 14 -14 0 -41 -7 -60
-14z"/>
<path d="M2510 1930 c34 -11 60 -11 35 0 -11 5 -29 8 -40 8 -16 0 -15 -2 5 -8z"/>
<path d="M2306 1845 c-24 -20 -54 -35 -77 -38 -59 -8 -127 -61 -155 -121 -13
-28 -24 -55 -24 -61 0 -5 19 -10 42 -10 39 0 46 4 77 45 76 100 108 134 153
165 37 25 45 35 36 43 -10 7 -23 1 -52 -23z"/>
<path d="M2410 1860 l-35 -7 32 -2 c17 0 35 4 38 9 3 6 5 9 3 9 -2 -1 -19 -5
-38 -9z"/>
<path d="M2525 1840 c11 -5 27 -9 35 -9 13 -1 13 0 0 9 -8 5 -24 9 -35 9 l-20
0 20 -9z"/>
<path d="M2430 1810 c-19 -11 -30 -19 -25 -19 6 0 26 8 45 19 19 11 31 19 25
19 -5 0 -26 -8 -45 -19z"/>
<path d="M2518 1813 c12 -2 30 -2 40 0 9 3 -1 5 -23 4 -22 0 -30 -2 -17 -4z"/>
<path d="M2408 1763 c6 -2 18 -2 25 0 6 3 1 5 -13 5 -14 0 -19 -2 -12 -5z"/>
<path d="M2485 1760 c11 -5 31 -9 45 -9 23 0 23 1 5 9 -11 5 -31 9 -45 9 -23
0 -23 -1 -5 -9z"/>
<path d="M1160 1730 c0 -13 7 -20 20 -20 13 0 20 7 20 20 0 13 -7 20 -20 20
-13 0 -20 -7 -20 -20z"/>
<path d="M1062 1610 c0 -14 2 -19 5 -12 2 6 2 18 0 25 -3 6 -5 1 -5 -13z"/>
<path d="M1167 1454 c-16 -16 -6 -35 16 -32 12 2 22 10 22 18 0 16 -26 25 -38
14z"/>
<path d="M3048 1347 c-88 -25 -149 -90 -183 -195 -26 -81 -18 -298 13 -368 27
-60 92 -127 145 -149 93 -38 233 -12 305 57 27 28 72 118 72 148 0 6 -20 10
-44 10 -42 0 -44 -1 -50 -35 -8 -40 -46 -90 -87 -110 -43 -23 -137 -19 -178 6
-81 49 -106 117 -106 284 0 113 2 123 30 180 33 67 74 100 135 110 100 17 178
-29 202 -119 12 -46 12 -46 55 -46 24 0 43 4 43 8 0 5 -7 31 -15 58 -18 61
-64 118 -117 145 -51 26 -157 33 -220 16z"/>
<path d="M4625 1351 c-176 -43 -220 -244 -73 -337 23 -15 90 -43 148 -62 131
-44 170 -77 170 -144 0 -52 -17 -80 -64 -102 -45 -21 -147 -21 -192 0 -44 21
-84 69 -84 100 0 22 -4 24 -45 24 -52 0 -56 -10 -26 -76 23 -50 80 -98 140
-119 53 -18 168 -20 222 -4 139 42 185 204 87 306 -29 30 -158 93 -190 93 -28
0 -137 60 -154 84 -25 39 -14 104 25 138 83 74 258 31 277 -68 6 -33 8 -34 50
-34 51 0 55 11 25 75 -46 102 -186 157 -316 126z"/>
<path d="M3530 1070 c0 -265 1 -283 21 -326 38 -80 121 -126 227 -125 85 0
155 25 199 68 65 65 67 78 71 386 l4 277 -46 0 -46 0 0 -267 c0 -251 -1 -269
-21 -310 -27 -56 -77 -83 -154 -83 -77 0 -131 28 -156 83 -17 38 -19 68 -19
310 l0 267 -40 0 -40 0 0 -280z"/>
<path d="M4210 985 l0 -365 45 0 45 0 0 365 0 365 -45 0 -45 0 0 -365z"/>
<path d="M5100 985 l0 -365 40 0 40 0 0 365 0 365 -40 0 -40 0 0 -365z"/>
<path d="M5370 986 l0 -366 45 0 45 0 0 280 c0 154 3 280 8 280 4 0 86 -122
182 -271 96 -148 179 -274 184 -279 6 -6 27 -10 48 -10 l38 0 0 365 0 365 -40
0 -40 0 0 -281 c0 -182 -4 -279 -10 -277 -5 2 -90 127 -188 278 l-178 275 -47
3 -47 3 0 -365z"/>
<path d="M6100 985 l0 -365 230 0 230 0 0 35 0 35 -182 2 -183 3 -3 132 -3
132 158 3 157 3 1 30 0 30 -155 5 -155 5 -3 123 -3 122 181 0 180 0 0 35 0 35
-225 0 -225 0 0 -365z"/>
<path d="M2521 1170 c-34 -4 -67 -13 -71 -20 -7 -11 -11 -11 -23 -1 -10 8 -28
10 -51 5 -40 -7 -49 -24 -12 -24 30 0 75 -35 61 -47 -18 -16 -148 -67 -168
-66 -12 1 -17 -3 -13 -12 8 -21 -18 -29 -134 -41 -31 -3 -64 -13 -75 -23 -11
-9 -27 -17 -35 -16 -8 1 -25 3 -37 3 -13 1 -40 17 -61 36 -34 31 -42 34 -81
29 -29 -4 -46 -2 -51 7 -6 10 -15 10 -46 0 -73 -23 -309 -123 -326 -138 -21
-18 -23 -43 -6 -60 17 -17 6 -24 -87 -47 -41 -10 -75 -23 -75 -29 0 -6 8 -21
18 -34 l18 -24 105 28 104 27 114 -94 113 -94 -46 -3 c-73 -5 -54 -22 27 -23
39 -1 113 -2 162 -3 50 -1 114 -6 143 -10 49 -8 52 -10 52 -38 0 -23 4 -29 18
-26 10 2 18 14 20 29 3 22 10 27 61 37 31 7 119 12 194 12 85 0 137 4 137 10
0 6 -50 10 -129 10 -95 0 -136 4 -157 15 -16 8 -42 15 -58 15 -41 0 -22 15 39
29 102 25 245 73 264 89 19 17 211 433 211 458 0 12 -39 46 -50 43 -3 -1 -34
-5 -69 -9z m-660 -236 c10 -9 17 -20 14 -24 -2 -3 -37 -12 -77 -19 -40 -7 -81
-15 -90 -17 -14 -4 -18 1 -18 19 0 66 114 93 171 41z"/>
<path d="M1175 1131 c-9 -16 3 -31 26 -31 14 0 19 6 17 17 -4 20 -33 29 -43
14z"/>
<path d="M1963 1072 c-35 -8 -63 -19 -63 -24 0 -4 30 -7 68 -5 59 4 67 6 64
23 -2 11 -5 19 -5 20 -1 1 -30 -6 -64 -14z"/>
<path d="M2120 1060 c0 -5 5 -10 10 -10 6 0 10 5 10 10 0 6 -4 10 -10 10 -5 0
-10 -4 -10 -10z"/>
<path d="M820 638 c-122 -31 -112 -25 -105 -69 6 -33 4 -39 -11 -39 -11 0 -14
-3 -8 -9 5 -5 83 -12 174 -15 91 -3 184 -8 208 -11 38 -7 42 -10 42 -36 0 -22
5 -29 20 -29 15 0 20 7 20 28 0 26 4 28 65 40 35 6 123 12 195 12 80 0 130 4
130 10 0 6 -48 10 -125 10 -95 0 -133 4 -157 16 -24 13 -50 14 -142 9 -61 -3
-122 -11 -136 -16 -14 -5 -73 -8 -130 -7 l-105 3 73 19 c40 10 75 22 77 27 3
4 -5 15 -19 24 -14 9 -26 22 -28 29 -2 9 -12 10 -38 4z"/>
</g>
</svg>
